<svg width="817" height="210" viewBox="0 0 817 210" fill="none" xmlns="http://www.w3.org/2000/svg">
<path d="M181.642 11.0909L192.006 40.4773H192.415L202.778 11.0909H207.21L194.392 46H190.028L177.21 11.0909H181.642ZM211.08 46H206.648L219.466 11.0909H223.83L236.648 46H232.216L221.784 16.6136H221.511L211.08 46ZM212.716 32.3636H230.58V36.1136H212.716V32.3636Z" fill="white"/>
<rect x="172.481" y="77.9229" width="126.077" height="131.33" rx="30" fill="#161616"/>
<rect y="12.2576" width="126.077" height="131.33" rx="30" fill="#D50647"/>
<rect x="517.442" y="77.9229" width="126.077" height="131.33" rx="30" fill="#D50647"/>
<rect x="344.961" y="12.2576" width="126.077" height="131.33" rx="30" fill="#DD4D00"/>
<path d="M416.455 55.7433V90.6523H412.227V55.7433H416.455ZM426.362 90.6523H421.93L434.749 55.7433H439.112L451.93 90.6523H447.499L437.067 61.266H436.794L426.362 90.6523ZM427.999 77.016H445.862V80.766H427.999V77.016Z" fill="white"/>
<path d="M571.24 11.0909V46H567.149L548.126 18.5909H547.785V46H543.558V11.0909H547.649L566.74 38.5682H567.081V11.0909H571.24ZM581.13 46H576.698L589.517 11.0909H593.88L606.698 46H602.267L591.835 16.6136H591.562L581.13 46ZM582.767 32.3636H600.63V36.1136H582.767V32.3636Z" fill="white"/>
<rect x="690" y="12" width="126.077" height="131.33" rx="30" fill="#DD4D00"/>
<path d="M713.241 64.4705C713.036 62.7433 712.207 61.4023 710.752 60.4478C709.298 59.4933 707.514 59.016 705.4 59.016C703.855 59.016 702.502 59.266 701.343 59.766C700.196 60.266 699.298 60.9535 698.65 61.8285C698.014 62.7035 697.696 63.6978 697.696 64.8114C697.696 65.7433 697.917 66.5444 698.36 67.2148C698.815 67.8739 699.394 68.4251 700.099 68.8683C700.804 69.3001 701.542 69.658 702.315 69.9421C703.088 70.2148 703.798 70.4364 704.446 70.6069L707.991 71.5614C708.9 71.8001 709.911 72.1296 711.025 72.5501C712.15 72.9705 713.224 73.5444 714.247 74.2717C715.281 74.9876 716.133 75.908 716.804 77.033C717.474 78.158 717.809 79.5387 717.809 81.1751C717.809 83.0614 717.315 84.766 716.326 86.2887C715.349 87.8114 713.917 89.0217 712.031 89.9194C710.156 90.8171 707.877 91.266 705.196 91.266C702.696 91.266 700.531 90.8626 698.701 90.0558C696.883 89.2489 695.451 88.1239 694.406 86.6808C693.372 85.2376 692.786 83.5614 692.65 81.6523H697.014C697.127 82.9705 697.571 84.0614 698.343 84.9251C699.127 85.7773 700.116 86.4137 701.309 86.8342C702.514 87.2433 703.809 87.4478 705.196 87.4478C706.809 87.4478 708.258 87.1864 709.542 86.6637C710.826 86.1296 711.843 85.391 712.593 84.4478C713.343 83.4933 713.718 82.3796 713.718 81.1069C713.718 79.9478 713.394 79.0046 712.747 78.2773C712.099 77.5501 711.247 76.9592 710.19 76.5046C709.133 76.0501 707.991 75.6523 706.764 75.3114L702.468 74.0842C699.741 73.3001 697.582 72.1808 695.991 70.7262C694.4 69.2717 693.605 67.3683 693.605 65.016C693.605 63.0614 694.133 61.3569 695.19 59.9023C696.258 58.4364 697.69 57.3001 699.485 56.4933C701.292 55.6751 703.309 55.266 705.536 55.266C707.786 55.266 709.786 55.6694 711.536 56.4762C713.286 57.2717 714.673 58.3626 715.696 59.7489C716.73 61.1353 717.275 62.7092 717.332 64.4705H713.241Z" fill="white"/>
<path d="M67.2658 90.6523V55.7433H71.4931V71.2887H90.1068V55.7433H94.334V90.6523H90.1068V75.0387H71.4931V90.6523H67.2658ZM104.229 90.6523H99.7971L112.615 55.7433H116.979L129.797 90.6523H125.365L114.933 61.266H114.661L104.229 90.6523ZM105.865 77.016H123.729V80.766H105.865V77.016Z" fill="white"/>
</svg>
