<svg width="817" height="198" viewBox="0 0 817 198" fill="none" xmlns="http://www.w3.org/2000/svg">
<path d="M235.48 23H231.253C231.003 21.7841 230.565 20.7159 229.94 19.7955C229.327 18.875 228.577 18.1023 227.69 17.4773C226.815 16.8409 225.844 16.3636 224.775 16.0455C223.707 15.7273 222.594 15.5682 221.434 15.5682C219.321 15.5682 217.406 16.1023 215.69 17.1705C213.986 18.2386 212.628 19.8125 211.616 21.892C210.616 23.9716 210.116 26.5227 210.116 29.5455C210.116 32.5682 210.616 35.1193 211.616 37.1989C212.628 39.2784 213.986 40.8523 215.69 41.9205C217.406 42.9886 219.321 43.5227 221.434 43.5227C222.594 43.5227 223.707 43.3636 224.775 43.0455C225.844 42.7273 226.815 42.2557 227.69 41.6307C228.577 40.9943 229.327 40.2159 229.94 39.2955C230.565 38.3636 231.003 37.2955 231.253 36.0909H235.48C235.162 37.875 234.582 39.4716 233.741 40.8807C232.9 42.2898 231.855 43.4886 230.605 44.4773C229.355 45.4545 227.952 46.1989 226.395 46.7102C224.849 47.2216 223.196 47.4773 221.434 47.4773C218.457 47.4773 215.809 46.75 213.491 45.2955C211.173 43.8409 209.349 41.7727 208.02 39.0909C206.69 36.4091 206.025 33.2273 206.025 29.5455C206.025 25.8636 206.69 22.6818 208.02 20C209.349 17.3182 211.173 15.25 213.491 13.7955C215.809 12.3409 218.457 11.6136 221.434 11.6136C223.196 11.6136 224.849 11.8693 226.395 12.3807C227.952 12.892 229.355 13.642 230.605 14.6307C231.855 15.608 232.9 16.8011 233.741 18.2102C234.582 19.608 235.162 21.2045 235.48 23ZM242.311 47V12.0909H254.106C256.834 12.0909 259.072 12.5568 260.822 13.4886C262.572 14.4091 263.868 15.6761 264.709 17.2898C265.55 18.9034 265.97 20.7386 265.97 22.7955C265.97 24.8523 265.55 26.6761 264.709 28.267C263.868 29.858 262.578 31.108 260.839 32.017C259.101 32.9148 256.879 33.3636 254.175 33.3636H244.629V29.5455H254.038C255.902 29.5455 257.402 29.2727 258.538 28.7273C259.686 28.1818 260.515 27.4091 261.027 26.4091C261.55 25.3977 261.811 24.1932 261.811 22.7955C261.811 21.3977 261.55 20.1761 261.027 19.1307C260.504 18.0852 259.669 17.2784 258.521 16.7102C257.373 16.1307 255.856 15.8409 253.97 15.8409H246.538V47H242.311ZM258.743 31.3182L267.334 47H262.425L253.97 31.3182H258.743Z" fill="white"/>
<rect x="173" y="66" width="126.077" height="131.33" rx="30" fill="#DD4D00"/>
<rect y="0.257568" width="126.077" height="131.33" rx="30" fill="#DD4D00"/>
<rect x="517" y="66" width="126.077" height="131.33" rx="30" fill="#C8C8C8"/>
<rect x="345" width="126.077" height="131.33" rx="30" fill="#D50647"/>
<path d="M434.227 78V43.0909H446.023C448.75 43.0909 450.989 43.5568 452.739 44.4886C454.489 45.4091 455.784 46.6761 456.625 48.2898C457.466 49.9034 457.886 51.7386 457.886 53.7955C457.886 55.8523 457.466 57.6761 456.625 59.267C455.784 60.858 454.494 62.108 452.756 63.017C451.017 63.9148 448.795 64.3636 446.091 64.3636H436.545V60.5455H445.955C447.818 60.5455 449.318 60.2727 450.455 59.7273C451.602 59.1818 452.432 58.4091 452.943 57.4091C453.466 56.3977 453.727 55.1932 453.727 53.7955C453.727 52.3977 453.466 51.1761 452.943 50.1307C452.42 49.0852 451.585 48.2784 450.438 47.7102C449.29 47.1307 447.773 46.8409 445.886 46.8409H438.455V78H434.227ZM450.659 62.3182L459.25 78H454.341L445.886 62.3182H450.659ZM464.93 78V43.0909H485.999V46.8409H469.158V58.6364H484.908V62.3864H469.158V74.25H486.271V78H464.93Z" fill="white"/>
<path d="M569.596 47V12.0909H590.664V15.8409H573.823V27.6364H589.573V31.3864H573.823V43.25H590.937V47H569.596Z" fill="white"/>
<rect x="690" width="126.077" height="131.33" rx="30" fill="#161616"/>
<path d="M721.832 43.7433V78.6523H717.741L698.718 51.2433H698.377V78.6523H694.15V43.7433H698.241L717.332 71.2205H717.673V43.7433H721.832Z" fill="white"/>
<path d="M131.799 52.4705C131.594 50.7433 130.765 49.4023 129.31 48.4478C127.856 47.4933 126.072 47.016 123.958 47.016C122.413 47.016 121.06 47.266 119.901 47.766C118.753 48.266 117.856 48.9535 117.208 49.8285C116.572 50.7035 116.253 51.6978 116.253 52.8114C116.253 53.7433 116.475 54.5444 116.918 55.2148C117.373 55.8739 117.952 56.4251 118.657 56.8683C119.361 57.3001 120.1 57.658 120.873 57.9421C121.646 58.2148 122.356 58.4364 123.003 58.6069L126.549 59.5614C127.458 59.8001 128.469 60.1296 129.583 60.5501C130.708 60.9705 131.782 61.5444 132.805 62.2717C133.839 62.9876 134.691 63.908 135.361 65.033C136.032 66.158 136.367 67.5387 136.367 69.1751C136.367 71.0614 135.873 72.766 134.884 74.2887C133.907 75.8114 132.475 77.0217 130.589 77.9194C128.714 78.8171 126.435 79.266 123.753 79.266C121.253 79.266 119.089 78.8626 117.259 78.0558C115.441 77.2489 114.009 76.1239 112.964 74.6808C111.93 73.2376 111.344 71.5614 111.208 69.6523H115.572C115.685 70.9705 116.128 72.0614 116.901 72.9251C117.685 73.7773 118.674 74.4137 119.867 74.8342C121.072 75.2433 122.367 75.4478 123.753 75.4478C125.367 75.4478 126.816 75.1864 128.1 74.6637C129.384 74.1296 130.401 73.391 131.151 72.4478C131.901 71.4933 132.276 70.3796 132.276 69.1069C132.276 67.9478 131.952 67.0046 131.305 66.2773C130.657 65.5501 129.805 64.9592 128.748 64.5046C127.691 64.0501 126.549 63.6523 125.322 63.3114L121.026 62.0842C118.299 61.3001 116.14 60.1808 114.549 58.7262C112.958 57.2717 112.163 55.3683 112.163 53.016C112.163 51.0614 112.691 49.3569 113.748 47.9023C114.816 46.4364 116.248 45.3001 118.043 44.4933C119.85 43.6751 121.867 43.266 124.094 43.266C126.344 43.266 128.344 43.6694 130.094 44.4762C131.844 45.2717 133.231 46.3626 134.253 47.7489C135.288 49.1353 135.833 50.7092 135.89 52.4705H131.799Z" fill="white"/>
</svg>
