<svg width="816" height="210" viewBox="0 0 816 210" fill="none" xmlns="http://www.w3.org/2000/svg">
<path d="M207.892 11.0909V46H203.801L184.778 18.5909H184.437V46H180.21V11.0909H184.301L203.392 38.5682H203.733V11.0909H207.892ZM216.351 46V11.0909H237.419V14.8409H220.578V26.6364H236.328V30.3864H220.578V42.25H237.692V46H216.351ZM264.129 19.8182C263.925 18.0909 263.095 16.75 261.641 15.7955C260.186 14.8409 258.402 14.3636 256.288 14.3636C254.743 14.3636 253.391 14.6136 252.231 15.1136C251.084 15.6136 250.186 16.3011 249.538 17.1761C248.902 18.0511 248.584 19.0455 248.584 20.1591C248.584 21.0909 248.805 21.892 249.248 22.5625C249.703 23.2216 250.283 23.7727 250.987 24.2159C251.692 24.6477 252.43 25.0057 253.203 25.2898C253.976 25.5625 254.686 25.7841 255.334 25.9545L258.879 26.9091C259.788 27.1477 260.8 27.4773 261.913 27.8977C263.038 28.3182 264.112 28.892 265.135 29.6193C266.169 30.3352 267.021 31.2557 267.692 32.3807C268.362 33.5057 268.697 34.8864 268.697 36.5227C268.697 38.4091 268.203 40.1136 267.214 41.6364C266.237 43.1591 264.805 44.3693 262.919 45.267C261.044 46.1648 258.766 46.6136 256.084 46.6136C253.584 46.6136 251.419 46.2102 249.589 45.4034C247.771 44.5966 246.339 43.4716 245.294 42.0284C244.26 40.5852 243.675 38.9091 243.538 37H247.902C248.016 38.3182 248.459 39.4091 249.231 40.2727C250.016 41.125 251.004 41.7614 252.197 42.1818C253.402 42.5909 254.697 42.7955 256.084 42.7955C257.697 42.7955 259.146 42.5341 260.43 42.0114C261.714 41.4773 262.731 40.7386 263.481 39.7955C264.231 38.8409 264.606 37.7273 264.606 36.4545C264.606 35.2955 264.283 34.3523 263.635 33.625C262.987 32.8977 262.135 32.3068 261.078 31.8523C260.021 31.3977 258.879 31 257.652 30.6591L253.356 29.4318C250.629 28.6477 248.47 27.5284 246.879 26.0739C245.288 24.6193 244.493 22.7159 244.493 20.3636C244.493 18.4091 245.021 16.7045 246.078 15.25C247.146 13.7841 248.578 12.6477 250.373 11.8409C252.18 11.0227 254.197 10.6136 256.425 10.6136C258.675 10.6136 260.675 11.017 262.425 11.8239C264.175 12.6193 265.561 13.7102 266.584 15.0966C267.618 16.483 268.163 18.0568 268.22 19.8182H264.129Z" fill="white"/>
<rect x="172.481" y="77.9228" width="126.077" height="131.33" rx="30" fill="#C8C8C8"/>
<rect y="12.2575" width="126.077" height="131.33" rx="30" fill="#161616"/>
<rect x="517.442" y="77.9228" width="126.077" height="131.33" rx="30" fill="#D50647"/>
<rect x="344.961" y="12.2575" width="126.077" height="131.33" rx="30" fill="#D50647"/>
<path d="M410.318 59.4933V55.7433H436.5V59.4933H425.523V90.6523H421.295V59.4933H410.318ZM443.024 90.6523V55.7433H447.251V71.2887H465.865V55.7433H470.092V90.6523H465.865V75.0387H447.251V90.6523H443.024Z" fill="white"/>
<path d="M543.558 46V11.0909H564.626V14.8409H547.785V26.6364H563.535V30.3864H547.785V42.25H564.899V46H543.558ZM591.336 19.8182C591.132 18.0909 590.302 16.75 588.848 15.7955C587.393 14.8409 585.609 14.3636 583.495 14.3636C581.95 14.3636 580.598 14.6136 579.439 15.1136C578.291 15.6136 577.393 16.3011 576.745 17.1761C576.109 18.0511 575.791 19.0455 575.791 20.1591C575.791 21.0909 576.012 21.892 576.456 22.5625C576.91 23.2216 577.49 23.7727 578.194 24.2159C578.899 24.6477 579.637 25.0057 580.41 25.2898C581.183 25.5625 581.893 25.7841 582.541 25.9545L586.086 26.9091C586.995 27.1477 588.007 27.4773 589.12 27.8977C590.245 28.3182 591.319 28.892 592.342 29.6193C593.376 30.3352 594.228 31.2557 594.899 32.3807C595.569 33.5057 595.904 34.8864 595.904 36.5227C595.904 38.4091 595.41 40.1136 594.421 41.6364C593.444 43.1591 592.012 44.3693 590.126 45.267C588.251 46.1648 585.973 46.6136 583.291 46.6136C580.791 46.6136 578.626 46.2102 576.796 45.4034C574.978 44.5966 573.546 43.4716 572.501 42.0284C571.467 40.5852 570.882 38.9091 570.745 37H575.109C575.223 38.3182 575.666 39.4091 576.439 40.2727C577.223 41.125 578.211 41.7614 579.404 42.1818C580.609 42.5909 581.904 42.7955 583.291 42.7955C584.904 42.7955 586.353 42.5341 587.637 42.0114C588.921 41.4773 589.939 40.7386 590.689 39.7955C591.439 38.8409 591.814 37.7273 591.814 36.4545C591.814 35.2955 591.49 34.3523 590.842 33.625C590.194 32.8977 589.342 32.3068 588.285 31.8523C587.228 31.3977 586.086 31 584.859 30.6591L580.564 29.4318C577.836 28.6477 575.677 27.5284 574.086 26.0739C572.495 24.6193 571.7 22.7159 571.7 20.3636C571.7 18.4091 572.228 16.7045 573.285 15.25C574.353 13.7841 575.785 12.6477 577.581 11.8409C579.387 11.0227 581.404 10.6136 583.632 10.6136C585.882 10.6136 587.882 11.017 589.632 11.8239C591.382 12.6193 592.768 13.7102 593.791 15.0966C594.825 16.483 595.37 18.0568 595.427 19.8182H591.336Z" fill="white"/>
<rect x="689.923" y="12.2575" width="126.077" height="131.33" rx="30" fill="#DD4D00"/>
<path d="M698.377 55.7433V90.6523H694.15V55.7433H698.377ZM708.285 90.6523H703.853L716.671 55.7433H721.035L733.853 90.6523H729.421L718.99 61.266H718.717L708.285 90.6523ZM709.921 77.016H727.785V80.766H709.921V77.016Z" fill="white"/>
<path d="M86.3568 64.4705C86.1523 62.7433 85.3227 61.4023 83.8682 60.4478C82.4136 59.4933 80.6295 59.016 78.5159 59.016C76.9705 59.016 75.6182 59.266 74.4591 59.766C73.3114 60.266 72.4136 60.9535 71.7659 61.8285C71.1295 62.7035 70.8114 63.6978 70.8114 64.8114C70.8114 65.7433 71.033 66.5444 71.4761 67.2148C71.9307 67.8739 72.5102 68.4251 73.2148 68.8683C73.9193 69.3001 74.658 69.658 75.4307 69.9421C76.2034 70.2148 76.9136 70.4364 77.5614 70.6069L81.1068 71.5614C82.0159 71.8001 83.0273 72.1296 84.1409 72.5501C85.2659 72.9705 86.3398 73.5444 87.3625 74.2717C88.3966 74.9876 89.2489 75.908 89.9193 77.033C90.5898 78.158 90.925 79.5387 90.925 81.1751C90.925 83.0614 90.4307 84.766 89.442 86.2887C88.4648 87.8114 87.033 89.0217 85.1466 89.9194C83.2716 90.8171 80.9932 91.266 78.3114 91.266C75.8114 91.266 73.6466 90.8626 71.817 90.0558C69.9989 89.2489 68.567 88.1239 67.5216 86.6808C66.4875 85.2376 65.9023 83.5614 65.7659 81.6523H70.1295C70.2432 82.9705 70.6864 84.0614 71.4591 84.9251C72.2432 85.7773 73.2318 86.4137 74.425 86.8342C75.6295 87.2433 76.925 87.4478 78.3114 87.4478C79.925 87.4478 81.3739 87.1864 82.658 86.6637C83.942 86.1296 84.9591 85.391 85.7091 84.4478C86.4591 83.4933 86.8341 82.3796 86.8341 81.1069C86.8341 79.9478 86.5102 79.0046 85.8625 78.2773C85.2148 77.5501 84.3625 76.9592 83.3057 76.5046C82.2489 76.0501 81.1068 75.6523 79.8795 75.3114L75.5841 74.0842C72.8568 73.3001 70.6977 72.1808 69.1068 70.7262C67.5159 69.2717 66.7205 67.3683 66.7205 65.016C66.7205 63.0614 67.2489 61.3569 68.3057 59.9023C69.3739 58.4364 70.8057 57.3001 72.6011 56.4933C74.408 55.6751 76.425 55.266 78.6523 55.266C80.9023 55.266 82.9023 55.6694 84.6523 56.4762C86.4023 57.2717 87.7886 58.3626 88.8114 59.7489C89.8455 61.1353 90.3909 62.7092 90.4477 64.4705H86.3568ZM94.8753 55.7433H99.7162L109.398 72.0387H109.807L119.489 55.7433H124.33L111.716 76.266V90.6523H107.489V76.266L94.8753 55.7433Z" fill="white"/>
</svg>
